<svg width="0" height="0" class="hidden">
  <symbol fill="none" xmlns="http://www.w3.org/2000/svg" viewBox="0 0 16 16" id="Footer-icons-2">
    <g clip-path="url(#clip0_2539_5292)">
      <path d="M5.11996 0.959961C2.82636 0.959961 0.959961 2.82636 0.959961 5.11996V10.88C0.959961 13.1736 2.82636 15.04 5.11996 15.04H10.88C13.1736 15.04 15.04 13.1736 15.04 10.88V5.11996C15.04 2.82636 13.1736 0.959961 10.88 0.959961H5.11996ZM5.11996 1.59996H10.88C12.8276 1.59996 14.4 3.17229 14.4 5.11996V10.88C14.4 12.8276 12.8276 14.4 10.88 14.4H5.11996C3.17229 14.4 1.59996 12.8276 1.59996 10.88V5.11996C1.59996 3.17229 3.17229 1.59996 5.11996 1.59996ZM11.84 3.51996C11.6702 3.51996 11.5074 3.58739 11.3874 3.70741C11.2674 3.82744 11.2 3.99022 11.2 4.15996C11.2 4.3297 11.2674 4.49249 11.3874 4.61251C11.5074 4.73253 11.6702 4.79996 11.84 4.79996C12.0097 4.79996 12.1725 4.73253 12.2925 4.61251C12.4125 4.49249 12.48 4.3297 12.48 4.15996C12.48 3.99022 12.4125 3.82744 12.2925 3.70741C12.1725 3.58739 12.0097 3.51996 11.84 3.51996ZM7.99996 4.47996C6.05971 4.47996 4.47996 6.05971 4.47996 7.99996C4.47996 9.94021 6.05971 11.52 7.99996 11.52C9.94021 11.52 11.52 9.94021 11.52 7.99996C11.52 6.05971 9.94021 4.47996 7.99996 4.47996ZM7.99996 5.11996C9.59433 5.11996 10.88 6.40559 10.88 7.99996C10.88 9.59433 9.59433 10.88 7.99996 10.88C6.40559 10.88 5.11996 9.59433 5.11996 7.99996C5.11996 6.40559 6.40559 5.11996 7.99996 5.11996Z" fill="currentcolor"></path>
    </g>
    <defs>
      <clipPath id="clip0_2539_5292">
        <rect width="16" height="16" fill="white"></rect>
      </clipPath>
    </defs>
  </symbol>
  <symbol fill="none" xmlns="http://www.w3.org/2000/svg" viewBox="0 0 16 16" id="Footer-icons-3">
    <g clip-path="url(#clip0_2539_5294)">
      <path d="M10.9496 1.75C9.0359 1.75 7.47965 3.30625 7.47965 5.22C7.47965 5.335 7.5084 5.4475 7.51965 5.56C5.1534 5.33375 3.0609 4.19375 1.63965 2.45C1.5734 2.36625 1.4709 2.32125 1.3634 2.32875C1.25715 2.33625 1.16215 2.3975 1.10965 2.49C0.810899 3.00375 0.639649 3.595 0.639649 4.23C0.639649 4.99875 0.914649 5.7025 1.33965 6.28C1.25715 6.24375 1.16715 6.22375 1.08965 6.18C0.990899 6.1275 0.872149 6.13 0.775899 6.1875C0.679649 6.245 0.620899 6.34875 0.619649 6.46V6.5C0.619649 7.67875 1.22965 8.7025 2.12965 9.33C2.11965 9.32875 2.10965 9.3325 2.09965 9.33C1.98965 9.31125 1.8784 9.35 1.80465 9.43375C1.7309 9.5175 1.70715 9.63375 1.73965 9.74C2.09715 10.8512 3.00965 11.7 4.13965 12.01C3.23965 12.545 2.1959 12.86 1.06965 12.86C0.825899 12.86 0.592149 12.8475 0.359649 12.82C0.209649 12.8 0.0658991 12.8875 0.0158992 13.03C-0.0353508 13.1725 0.0208992 13.3312 0.149649 13.41C1.5934 14.3362 3.30715 14.88 5.14965 14.88C8.1359 14.88 10.4784 13.6325 12.0496 11.85C13.6209 10.0675 14.4396 7.7525 14.4396 5.59C14.4396 5.49875 14.4321 5.41 14.4296 5.32C15.0159 4.87125 15.5396 4.345 15.9496 3.73C16.0309 3.61125 16.0222 3.4525 15.9284 3.3425C15.8359 3.2325 15.6796 3.19875 15.5496 3.26C15.3846 3.33375 15.1921 3.34125 15.0196 3.4C15.2471 3.09625 15.4421 2.76875 15.5596 2.4C15.5996 2.27375 15.5559 2.135 15.4521 2.0525C15.3484 1.97125 15.2034 1.96125 15.0896 2.03C14.5434 2.35375 13.9384 2.58125 13.2996 2.72C12.6796 2.14 11.8634 1.75 10.9496 1.75ZM10.9496 2.39C11.7659 2.39 12.5034 2.73875 13.0196 3.29C13.0971 3.37 13.2109 3.40375 13.3196 3.38C13.7371 3.2975 14.1334 3.17625 14.5196 3.02C14.2971 3.32 14.0221 3.57625 13.6996 3.77C13.5534 3.84125 13.4846 4.01 13.5384 4.16375C13.5909 4.31625 13.7509 4.405 13.9096 4.37C14.2296 4.33125 14.5146 4.20125 14.8196 4.12C14.5459 4.41625 14.2459 4.68375 13.9196 4.92C13.8309 4.985 13.7821 5.09 13.7896 5.2C13.7946 5.33 13.7996 5.45875 13.7996 5.59C13.7996 7.59 13.0321 9.76125 11.5696 11.42C10.1071 13.0787 7.95965 14.24 5.14965 14.24C3.8734 14.24 2.6684 13.9575 1.57965 13.46C2.92965 13.3562 4.17465 12.8787 5.17965 12.09C5.28465 12.0062 5.3259 11.8663 5.2834 11.7387C5.2409 11.6112 5.1234 11.5238 4.98965 11.52C3.93465 11.5012 3.0509 10.8875 2.57965 10.02C2.59715 10.02 2.61215 10.02 2.62965 10.02C2.9459 10.02 3.2584 9.98 3.54965 9.9C3.68965 9.85875 3.7859 9.72875 3.7809 9.5825C3.7759 9.43625 3.67215 9.31125 3.52965 9.28C2.3909 9.05 1.53715 8.1225 1.33965 6.97C1.66215 7.08125 1.99215 7.16875 2.34965 7.18C2.4959 7.18875 2.6284 7.0975 2.6734 6.95875C2.7184 6.82 2.6634 6.6675 2.53965 6.59C1.77965 6.08125 1.27965 5.215 1.27965 4.23C1.27965 3.865 1.37465 3.53 1.49965 3.21C3.09965 4.96625 5.33965 6.1325 7.86965 6.26C7.96965 6.265 8.06715 6.22375 8.13215 6.1475C8.19715 6.07 8.22215 5.9675 8.19965 5.87C8.1509 5.6625 8.11965 5.4425 8.11965 5.22C8.11965 3.6525 9.38215 2.39 10.9496 2.39Z" fill="currentcolor"></path>
    </g>
    <defs>
      <clipPath id="clip0_2539_5294">
        <rect width="16" height="16" fill="white"></rect>
      </clipPath>
    </defs>
  </symbol>
  <symbol fill="none" xmlns="http://www.w3.org/2000/svg" viewBox="0 0 58 58" id="icon">
    <g opacity="0.2">
      <rect x="0.5" y="0.5" width="57" height="57" rx="28.5" fill="white"></rect>
      <rect x="0.5" y="0.5" width="57" height="57" rx="28.5" stroke="white"></rect>
    </g>
  </symbol>
  <symbol fill="white" xmlns="http://www.w3.org/2000/svg" viewBox="0 0 16 16" id="Footer-icons-1">
    <path d="M14.2002 1.91574C14.0443 1.92257 13.8926 1.96595 13.7558 2.02074C13.6204 2.07516 12.8408 2.4079 11.6896 2.90011C10.5383 3.39232 9.04179 4.03329 7.55832 4.66886C4.59136 5.94001 1.67582 7.19074 1.67582 7.19074L1.69707 7.18261C1.69707 7.18261 1.5211 7.24143 1.34269 7.36574C1.25349 7.42789 1.15752 7.50813 1.07894 7.62511C1.00036 7.74209 0.942917 7.90788 0.964566 8.08324C1.04061 8.69915 1.67894 8.87386 1.67894 8.87386L1.68144 8.87511L4.53019 9.85011C4.60282 10.0924 5.39423 12.7338 5.56832 13.2932C5.66446 13.6025 5.75445 13.7809 5.84832 13.9026C5.89529 13.9635 5.94451 14.0106 5.99894 14.0451C6.02057 14.0588 6.04331 14.0691 6.06582 14.0782H6.06707C6.06983 14.0795 6.07243 14.0796 6.07519 14.0807L6.06769 14.0789C6.07292 14.081 6.07808 14.0845 6.08332 14.0864C6.09347 14.0899 6.0997 14.0898 6.11269 14.0926C6.43895 14.2065 6.70894 13.9951 6.70894 13.9951L6.72019 13.9864L8.47019 12.3632L11.3102 14.5776L11.3458 14.5939C11.8429 14.8146 12.2925 14.6914 12.5414 14.4889C12.7904 14.2863 12.8883 14.0251 12.8883 14.0251L12.8989 13.9976L14.9858 3.12074C15.0392 2.8774 15.0468 2.66706 14.9964 2.47699C14.9461 2.28692 14.8237 2.12169 14.6702 2.03011C14.5167 1.93853 14.356 1.9089 14.2002 1.91574ZM14.2171 2.56636C14.2804 2.56343 14.3273 2.57067 14.3421 2.57949C14.3569 2.58831 14.3635 2.58715 14.3777 2.64074C14.3919 2.69433 14.3996 2.8072 14.3608 2.98386L14.3596 2.98761L12.2846 13.8014C12.2797 13.8122 12.2364 13.9123 12.1377 13.9926C12.037 14.0746 11.925 14.1385 11.6277 14.0139L8.52207 11.592L8.43457 11.5232L8.43269 11.5251L7.50394 10.8282L12.7233 4.68761C12.7634 4.64055 12.789 4.58288 12.7971 4.52157C12.8051 4.46026 12.7952 4.39794 12.7685 4.34214C12.7419 4.28634 12.6997 4.23945 12.6469 4.20715C12.5942 4.17485 12.5333 4.15851 12.4714 4.16011C12.411 4.16168 12.3523 4.18032 12.3021 4.21386L4.74957 9.24886L1.89644 8.27199C1.89644 8.27199 1.61313 8.11433 1.59957 8.00449C1.59881 7.9984 1.59547 8.00391 1.61019 7.98199C1.62491 7.96007 1.66192 7.92306 1.70832 7.89074C1.80111 7.82608 1.90707 7.78699 1.90707 7.78699L1.91769 7.78324L1.92832 7.77886C1.92832 7.77886 4.84401 6.52807 7.81082 5.25699C9.29422 4.62144 10.7905 3.98095 11.9414 3.48886C13.0921 2.9969 13.9235 2.64279 13.9939 2.61449C14.0741 2.58239 14.1538 2.56929 14.2171 2.56636ZM10.7558 6.01386L6.79769 10.6707L6.79582 10.6726C6.78964 10.6801 6.7838 10.6878 6.77832 10.6957C6.77204 10.7044 6.7662 10.7134 6.76082 10.7226C6.73858 10.7604 6.72433 10.8023 6.71894 10.8457C6.71894 10.8466 6.71894 10.8474 6.71894 10.8482L6.20332 13.167C6.19474 13.1419 6.18874 13.1328 6.17957 13.1032V13.1026C6.01579 12.5764 5.26912 10.0853 5.16582 9.74074L10.7558 6.01386ZM7.24457 11.4339L7.95582 11.9676L6.91082 12.9364L7.24457 11.4339Z" fill="currentcolor"></path>
  </symbol>
</svg>