<svg width="0" height="0" class="hidden">
  <symbol fill="none" xmlns="http://www.w3.org/2000/svg" viewBox="0 0 32 32" id="arrow-right">
    <g id="vuesax/outline/arrow-right">
      <g id="arrow-right">
        <path id="Vector" d="M11.8805 27.56C11.6271 27.56 11.3738 27.4667 11.1738 27.2667C10.7871 26.88 10.7871 26.24 11.1738 25.8534L19.8671 17.16C20.5071 16.52 20.5071 15.48 19.8671 14.84L11.1738 6.14669C10.7871 5.76003 10.7871 5.12003 11.1738 4.73336C11.5605 4.34669 12.2005 4.34669 12.5871 4.73336L21.2805 13.4267C21.9605 14.1067 22.3471 15.0267 22.3471 16C22.3471 16.9734 21.9738 17.8934 21.2805 18.5734L12.5871 27.2667C12.3871 27.4534 12.1338 27.56 11.8805 27.56Z" fill="currentcolor"></path>
      </g>
    </g>
  </symbol>
  <symbol fill="none" xmlns="http://www.w3.org/2000/svg" viewBox="0 0 82 19" id="elipse-Group">
    <path d="M81.1819 18.9086C71.5188 15.7635 70.945 0 60.783 0H20.1709C9.93327 0 10.3917 19 0.153999 19C-4.24391 19 87.0571 19 81.7796 19C81.5654 19 81.3665 18.9687 81.1819 18.9086Z" fill="white"></path>
    <circle cx="2" cy="2" r="2" transform="matrix(-1 0 0 1 65 8)" fill="#ADADAD"></circle>
    <circle cx="2" cy="2" r="2" transform="matrix(-1 0 0 1 57 8)" fill="#ADADAD"></circle>
    <circle cx="2" cy="2" r="2" transform="matrix(-1 0 0 1 49 8)" fill="#ADADAD"></circle>
    <circle cx="2" cy="2" r="2" transform="matrix(-1 0 0 1 41 8)" fill="#ADADAD"></circle>
    <circle cx="2" cy="2" r="2" transform="matrix(-1 0 0 1 33 8)" fill="#ADADAD"></circle>
    <circle cx="4" cy="4" r="5" transform="matrix(-1 0 0 1 25 6)" fill="#417F56" stroke="#E5F2E9" stroke-width="2"></circle>
  </symbol>
  <symbol fill="none" xmlns="http://www.w3.org/2000/svg" viewBox="0 0 16 16" id="search-normal">
    <g id="vuesax/outline/search-normal">
      <g id="search-normal">
        <path id="Vector" d="M7.66634 14.5C3.89967 14.5 0.833008 11.4333 0.833008 7.66665C0.833008 3.89998 3.89967 0.833313 7.66634 0.833313C11.433 0.833313 14.4997 3.89998 14.4997 7.66665C14.4997 11.4333 11.433 14.5 7.66634 14.5ZM7.66634 1.83331C4.44634 1.83331 1.83301 4.45331 1.83301 7.66665C1.83301 10.88 4.44634 13.5 7.66634 13.5C10.8863 13.5 13.4997 10.88 13.4997 7.66665C13.4997 4.45331 10.8863 1.83331 7.66634 1.83331Z" fill="#353535"></path>
        <path id="Vector_2" d="M14.6666 15.1667C14.54 15.1667 14.4133 15.12 14.3133 15.02L12.98 13.6867C12.7866 13.4934 12.7866 13.1734 12.98 12.98C13.1733 12.7867 13.4933 12.7867 13.6866 12.98L15.02 14.3134C15.2133 14.5067 15.2133 14.8267 15.02 15.02C14.92 15.12 14.7933 15.1667 14.6666 15.1667Z" fill="#353535"></path>
      </g>
    </g>
  </symbol>
  <symbol fill="none" xmlns="http://www.w3.org/2000/svg" viewBox="0 0 32 32" id="arrow-left">
    <g id="vuesax/outline/arrow-left">
      <g id="arrow-left">
        <path id="Vector" d="M20 27.56C19.7467 27.56 19.4934 27.4667 19.2934 27.2667L10.6 18.5734C9.18671 17.16 9.18671 14.84 10.6 13.4267L19.2934 4.73336C19.68 4.34669 20.32 4.34669 20.7067 4.73336C21.0934 5.12003 21.0934 5.76003 20.7067 6.14669L12.0134 14.84C11.3734 15.48 11.3734 16.52 12.0134 17.16L20.7067 25.8534C21.0934 26.24 21.0934 26.88 20.7067 27.2667C20.5067 27.4534 20.2534 27.56 20 27.56Z" fill="currentcolor"></path>
      </g>
    </g>
  </symbol>
</svg>