<svg width="0" height="0" class="hidden">
  <symbol fill="none" xmlns="http://www.w3.org/2000/svg" viewBox="0 0 80 16" id="rate-1">
    <path d="M8 0L9.79611 5.52786H15.6085L10.9062 8.94427L12.7023 14.4721L8 11.0557L3.29772 14.4721L5.09383 8.94427L0.391548 5.52786H6.20389L8 0Z" fill="#F4B740"></path>
    <path d="M24 1.61803L25.3206 5.68237L25.4328 6.02786H25.7961H30.0696L26.6123 8.53976L26.3184 8.75329L26.4306 9.09878L27.7512 13.1631L24.2939 10.6512L24 10.4377L23.7061 10.6512L20.2488 13.1631L21.5694 9.09878L21.6816 8.75329L21.3877 8.53976L17.9304 6.02786H22.2039H22.5672L22.6794 5.68237L24 1.61803Z" stroke="#F4B740"></path>
    <path d="M40 1.61803L41.3206 5.68237L41.4328 6.02786H41.7961H46.0696L42.6123 8.53976L42.3184 8.75329L42.4306 9.09878L43.7512 13.1631L40.2939 10.6512L40 10.4377L39.7061 10.6512L36.2488 13.1631L37.5694 9.09878L37.6816 8.75329L37.3877 8.53976L33.9304 6.02786H38.2039H38.5672L38.6794 5.68237L40 1.61803Z" stroke="#F4B740"></path>
    <path d="M56 1.61803L57.3206 5.68237L57.4328 6.02786H57.7961H62.0696L58.6123 8.53976L58.3184 8.75329L58.4306 9.09878L59.7512 13.1631L56.2939 10.6512L56 10.4377L55.7061 10.6512L52.2488 13.1631L53.5694 9.09878L53.6816 8.75329L53.3877 8.53976L49.9304 6.02786H54.2039H54.5672L54.6794 5.68237L56 1.61803Z" stroke="#F4B740"></path>
    <path d="M72 1.61803L73.3206 5.68237L73.4328 6.02786H73.7961H78.0696L74.6123 8.53976L74.3184 8.75329L74.4306 9.09878L75.7512 13.1631L72.2939 10.6512L72 10.4377L71.7061 10.6512L68.2488 13.1631L69.5694 9.09878L69.6816 8.75329L69.3877 8.53976L65.9304 6.02786H70.2039H70.5672L70.6794 5.68237L72 1.61803Z" stroke="#F4B740"></path>
  </symbol>
  <symbol fill="none" xmlns="http://www.w3.org/2000/svg" viewBox="0 0 80 16" id="rate-2">
    <path d="M8 0L9.79611 5.52786H15.6085L10.9062 8.94427L12.7023 14.4721L8 11.0557L3.29772 14.4721L5.09383 8.94427L0.391548 5.52786H6.20389L8 0Z" fill="#F4B740"></path>
    <path d="M24 0L25.7961 5.52786H31.6085L26.9062 8.94427L28.7023 14.4721L24 11.0557L19.2977 14.4721L21.0938 8.94427L16.3915 5.52786H22.2039L24 0Z" fill="#F4B740"></path>
    <path d="M40 1.61803L41.3206 5.68237L41.4328 6.02786H41.7961H46.0696L42.6123 8.53976L42.3184 8.75329L42.4306 9.09878L43.7512 13.1631L40.2939 10.6512L40 10.4377L39.7061 10.6512L36.2488 13.1631L37.5694 9.09878L37.6816 8.75329L37.3877 8.53976L33.9304 6.02786H38.2039H38.5672L38.6794 5.68237L40 1.61803Z" stroke="#F4B740"></path>
    <path d="M56 1.61803L57.3206 5.68237L57.4328 6.02786H57.7961H62.0696L58.6123 8.53976L58.3184 8.75329L58.4306 9.09878L59.7512 13.1631L56.2939 10.6512L56 10.4377L55.7061 10.6512L52.2488 13.1631L53.5694 9.09878L53.6816 8.75329L53.3877 8.53976L49.9304 6.02786H54.2039H54.5672L54.6794 5.68237L56 1.61803Z" stroke="#F4B740"></path>
    <path d="M72 1.61803L73.3206 5.68237L73.4328 6.02786H73.7961H78.0696L74.6123 8.53976L74.3184 8.75329L74.4306 9.09878L75.7512 13.1631L72.2939 10.6512L72 10.4377L71.7061 10.6512L68.2488 13.1631L69.5694 9.09878L69.6816 8.75329L69.3877 8.53976L65.9304 6.02786H70.2039H70.5672L70.6794 5.68237L72 1.61803Z" stroke="#F4B740"></path>
  </symbol>
  <symbol fill="none" xmlns="http://www.w3.org/2000/svg" viewBox="0 0 80 16" id="rate-3">
    <path d="M8 0L9.79611 5.52786H15.6085L10.9062 8.94427L12.7023 14.4721L8 11.0557L3.29772 14.4721L5.09383 8.94427L0.391548 5.52786H6.20389L8 0Z" fill="#F4B740"></path>
    <path d="M24 0L25.7961 5.52786H31.6085L26.9062 8.94427L28.7023 14.4721L24 11.0557L19.2977 14.4721L21.0938 8.94427L16.3915 5.52786H22.2039L24 0Z" fill="#F4B740"></path>
    <path d="M40 0L41.7961 5.52786H47.6085L42.9062 8.94427L44.7023 14.4721L40 11.0557L35.2977 14.4721L37.0938 8.94427L32.3915 5.52786H38.2039L40 0Z" fill="#F4B740"></path>
    <path d="M56 1.61803L57.3206 5.68237L57.4328 6.02786H57.7961H62.0696L58.6123 8.53976L58.3184 8.75329L58.4306 9.09878L59.7512 13.1631L56.2939 10.6512L56 10.4377L55.7061 10.6512L52.2488 13.1631L53.5694 9.09878L53.6816 8.75329L53.3877 8.53976L49.9304 6.02786H54.2039H54.5672L54.6794 5.68237L56 1.61803Z" stroke="#F4B740"></path>
    <path d="M72 1.61803L73.3206 5.68237L73.4328 6.02786H73.7961H78.0696L74.6123 8.53976L74.3184 8.75329L74.4306 9.09878L75.7512 13.1631L72.2939 10.6512L72 10.4377L71.7061 10.6512L68.2488 13.1631L69.5694 9.09878L69.6816 8.75329L69.3877 8.53976L65.9304 6.02786H70.2039H70.5672L70.6794 5.68237L72 1.61803Z" stroke="#F4B740"></path>
  </symbol>
  <symbol fill="none" xmlns="http://www.w3.org/2000/svg" viewBox="0 0 80 16" id="rate-4">
    <path d="M8 0L9.79611 5.52786H15.6085L10.9062 8.94427L12.7023 14.4721L8 11.0557L3.29772 14.4721L5.09383 8.94427L0.391548 5.52786H6.20389L8 0Z" fill="#F4B740"></path>
    <path d="M24 0L25.7961 5.52786H31.6085L26.9062 8.94427L28.7023 14.4721L24 11.0557L19.2977 14.4721L21.0938 8.94427L16.3915 5.52786H22.2039L24 0Z" fill="#F4B740"></path>
    <path d="M40 0L41.7961 5.52786H47.6085L42.9062 8.94427L44.7023 14.4721L40 11.0557L35.2977 14.4721L37.0938 8.94427L32.3915 5.52786H38.2039L40 0Z" fill="#F4B740"></path>
    <path d="M56 0L57.7961 5.52786H63.6085L58.9062 8.94427L60.7023 14.4721L56 11.0557L51.2977 14.4721L53.0938 8.94427L48.3915 5.52786H54.2039L56 0Z" fill="#F4B740"></path>
    <path d="M72 1.61803L73.3206 5.68237L73.4328 6.02786H73.7961H78.0696L74.6123 8.53976L74.3184 8.75329L74.4306 9.09878L75.7512 13.1631L72.2939 10.6512L72 10.4377L71.7061 10.6512L68.2488 13.1631L69.5694 9.09878L69.6816 8.75329L69.3877 8.53976L65.9304 6.02786H70.2039H70.5672L70.6794 5.68237L72 1.61803Z" stroke="#F4B740"></path>
  </symbol>
  <symbol fill="none" xmlns="http://www.w3.org/2000/svg" viewBox="0 0 80 16" id="rate-5">
    <path d="M8 0L9.79611 5.52786H15.6085L10.9062 8.94427L12.7023 14.4721L8 11.0557L3.29772 14.4721L5.09383 8.94427L0.391548 5.52786H6.20389L8 0Z" fill="#F4B740"></path>
    <path d="M24 0L25.7961 5.52786H31.6085L26.9062 8.94427L28.7023 14.4721L24 11.0557L19.2977 14.4721L21.0938 8.94427L16.3915 5.52786H22.2039L24 0Z" fill="#F4B740"></path>
    <path d="M40 0L41.7961 5.52786H47.6085L42.9062 8.94427L44.7023 14.4721L40 11.0557L35.2977 14.4721L37.0938 8.94427L32.3915 5.52786H38.2039L40 0Z" fill="#F4B740"></path>
    <path d="M56 0L57.7961 5.52786H63.6085L58.9062 8.94427L60.7023 14.4721L56 11.0557L51.2977 14.4721L53.0938 8.94427L48.3915 5.52786H54.2039L56 0Z" fill="#F4B740"></path>
    <path d="M72 0L73.7961 5.52786H79.6085L74.9062 8.94427L76.7023 14.4721L72 11.0557L67.2977 14.4721L69.0938 8.94427L64.3915 5.52786H70.2039L72 0Z" fill="#F4B740"></path>
  </symbol>
</svg>